<svg xmlns="http://www.w3.org/2000/svg" xmlns:xlink="http://www.w3.org/1999/xlink" width="40" zoomAndPan="magnify" viewBox="0 0 30 30.000001" height="40" preserveAspectRatio="xMidYMid meet" version="1.0"><defs><filter x="0%" y="0%" width="100%" height="100%" id="d0234285ce"><feColorMatrix values="0 0 0 0 1 0 0 0 0 1 0 0 0 0 1 0 0 0 1 0" color-interpolation-filters="sRGB"/></filter><clipPath id="9bec40b484"><path d="M 0.484375 0 L 29.515625 0 L 29.515625 28.429688 L 0.484375 28.429688 Z M 0.484375 0 " clip-rule="nonzero"/></clipPath><clipPath id="1d64a731a1"><path d="M 28.777344 14.214844 C 28.777344 12.730469 29.515625 11.15625 29.0625 9.820312 C 28.59375 8.433594 27.015625 7.582031 26.144531 6.429688 C 25.265625 5.261719 24.902344 3.5625 23.691406 2.71875 C 22.492188 1.882812 20.699219 2.070312 19.261719 1.613281 C 17.871094 1.183594 16.546875 0 15.003906 0 C 13.464844 0 12.136719 1.175781 10.75 1.613281 C 9.3125 2.0625 7.515625 1.875 6.316406 2.71875 C 5.105469 3.5625 4.742188 5.261719 3.859375 6.429688 C 2.984375 7.582031 1.410156 8.433594 0.9375 9.820312 C 0.488281 11.15625 1.222656 12.730469 1.222656 14.214844 C 1.222656 15.699219 0.484375 17.273438 0.9375 18.609375 C 1.40625 19.996094 2.984375 20.847656 3.855469 22 C 4.734375 23.167969 5.097656 24.867188 6.308594 25.714844 C 7.507812 26.554688 9.300781 26.367188 10.742188 26.816406 C 12.136719 27.246094 13.460938 28.429688 15 28.429688 C 16.539062 28.429688 17.871094 27.253906 19.257812 26.816406 C 20.695312 26.367188 22.492188 26.554688 23.691406 25.714844 C 24.902344 24.867188 25.265625 23.167969 26.144531 22 C 27.019531 20.847656 28.59375 19.996094 29.0625 18.609375 C 29.515625 17.265625 28.777344 15.691406 28.777344 14.214844 Z M 28.777344 14.214844 " clip-rule="nonzero"/></clipPath><mask id="d5132cf801"><g filter="url(#d0234285ce)"><rect x="-3" width="36" fill="#000000" y="-3" height="36.000001" fill-opacity="0.85"/></g></mask><clipPath id="b5f67b0210"><path d="M 0.804688 0.324219 L 25.195312 0.324219 L 25.195312 24.710938 L 0.804688 24.710938 Z M 0.804688 0.324219 " clip-rule="nonzero"/></clipPath><clipPath id="0b56d92619"><rect x="0" width="26" y="0" height="25"/></clipPath></defs><g clip-path="url(#9bec40b484)"><g clip-path="url(#1d64a731a1)"><path fill="#ff0089" d="M 0.484375 0 L 29.515625 0 L 29.515625 28.429688 L 0.484375 28.429688 Z M 0.484375 0 " fill-opacity="1" fill-rule="nonzero"/></g></g><g mask="url(#d5132cf801)"><g transform="matrix(1, 0, 0, 1, 2, 2)"><g clip-path="url(#0b56d92619)"><g clip-path="url(#b5f67b0210)"><path fill="#ffffff" d="M 10.582031 6.46875 L 12.394531 0.417969 L 14.816406 6.46875 L 22.074219 3.445312 L 17.839844 10.097656 L 25.097656 11.304688 L 18.445312 14.332031 L 22.074219 20.984375 L 14.816406 17.960938 L 11.183594 24.613281 L 9.976562 17.355469 L 3.324219 19.167969 L 6.953125 13.726562 L 0.914062 11.238281 L 6.953125 9.492188 L 3.925781 2.234375 Z M 13.128906 7.140625 L 12.640625 5.917969 L 12.316406 6.988281 L 11.628906 9.285156 L 9.605469 7.996094 L 7.820312 6.863281 L 8.625 8.792969 L 9.40625 10.667969 L 7.453125 11.234375 L 6.40625 11.539062 L 7.640625 12.046875 L 9.6875 12.890625 L 8.460938 14.730469 L 7.519531 16.144531 L 9.5 15.605469 L 11.433594 15.074219 L 11.765625 17.054688 L 12.109375 19.128906 L 13.222656 17.089844 L 14.003906 15.65625 L 15.511719 16.285156 L 18.007812 17.324219 L 16.851562 15.199219 L 15.914062 13.484375 L 17.691406 12.679688 L 18.925781 12.117188 L 17.539062 11.886719 L 14.835938 11.433594 L 16.308594 9.121094 L 17.445312 7.339844 L 15.511719 8.140625 L 13.8125 8.851562 Z M 13.128906 7.140625 " fill-opacity="1" fill-rule="evenodd"/></g><path fill="#ffffff" d="M 12.238281 11.320312 L 9.976562 9.492188 L 11.183594 12.515625 L 9.976562 14.332031 L 11.789062 13.726562 L 13 16.144531 L 13.605469 13.121094 L 16.023438 12.515625 L 13.605469 11.910156 L 13 8.886719 Z M 12.238281 11.320312 " fill-opacity="1" fill-rule="nonzero"/></g></g></g></svg>