<svg xmlns="http://www.w3.org/2000/svg" xmlns:xlink="http://www.w3.org/1999/xlink" width="48" zoomAndPan="magnify" viewBox="0 0 36 36.000001" height="48" preserveAspectRatio="xMidYMid meet" version="1.0"><defs><filter x="0%" y="0%" width="100%" height="100%" id="1e3c1a2b1b"><feColorMatrix values="0 0 0 0 1 0 0 0 0 1 0 0 0 0 1 0 0 0 1 0" color-interpolation-filters="sRGB"/></filter><clipPath id="bace593658"><path d="M 0.488281 0 L 35.511719 0 L 35.511719 35.027344 L 0.488281 35.027344 Z M 0.488281 0 " clip-rule="nonzero"/></clipPath><clipPath id="6290a4fbab"><path d="M 0.488281 0 L 35.511719 0 L 35.511719 34.300781 L 0.488281 34.300781 Z M 0.488281 0 " clip-rule="nonzero"/></clipPath><clipPath id="b3ef734197"><path d="M 34.621094 17.148438 C 34.621094 15.359375 35.511719 13.460938 34.964844 11.847656 C 34.402344 10.175781 32.496094 9.148438 31.445312 7.753906 C 30.382812 6.351562 29.945312 4.300781 28.484375 3.277344 C 27.039062 2.269531 24.878906 2.496094 23.144531 1.949219 C 21.464844 1.425781 19.863281 0 18.007812 0 C 16.148438 0 14.542969 1.417969 12.871094 1.949219 C 11.136719 2.488281 8.96875 2.261719 7.523438 3.277344 C 6.0625 4.300781 5.621094 6.351562 4.558594 7.753906 C 3.503906 9.148438 1.605469 10.175781 1.035156 11.847656 C 0.492188 13.460938 1.378906 15.359375 1.378906 17.148438 C 1.378906 18.941406 0.488281 20.839844 1.035156 22.449219 C 1.597656 24.125 3.503906 25.152344 4.554688 26.542969 C 5.617188 27.949219 6.054688 30 7.515625 31.023438 C 8.960938 32.039062 11.121094 31.8125 12.863281 32.351562 C 14.542969 32.875 16.140625 34.300781 18 34.300781 C 19.859375 34.300781 21.464844 32.878906 23.136719 32.351562 C 24.871094 31.8125 27.039062 32.039062 28.484375 31.023438 C 29.945312 30 30.382812 27.949219 31.445312 26.542969 C 32.503906 25.152344 34.402344 24.125 34.964844 22.449219 C 35.511719 20.832031 34.621094 18.933594 34.621094 17.148438 Z M 34.621094 17.148438 " clip-rule="nonzero"/></clipPath><mask id="6e517104c7"><g filter="url(#1e3c1a2b1b)"><rect x="-3.6" width="43.2" fill="#000000" y="-3.6" height="43.200001" fill-opacity="0.85"/></g></mask><clipPath id="c62e2336dd"><path d="M 0.289062 0.800781 L 29.710938 0.800781 L 29.710938 30.226562 L 0.289062 30.226562 Z M 0.289062 0.800781 " clip-rule="nonzero"/></clipPath><clipPath id="5b575afbd3"><rect x="0" width="30" y="0" height="31"/></clipPath></defs><g clip-path="url(#bace593658)"><path fill="#ffffff" d="M 0.488281 0 L 35.511719 0 L 35.511719 35.027344 L 0.488281 35.027344 Z M 0.488281 0 " fill-opacity="1" fill-rule="nonzero"/><path fill="#ffffff" d="M 0.488281 0 L 35.511719 0 L 35.511719 35.027344 L 0.488281 35.027344 Z M 0.488281 0 " fill-opacity="1" fill-rule="nonzero"/></g><g clip-path="url(#6290a4fbab)"><g clip-path="url(#b3ef734197)"><path fill="#ff0089" d="M 0.488281 0 L 35.511719 0 L 35.511719 34.300781 L 0.488281 34.300781 Z M 0.488281 0 " fill-opacity="1" fill-rule="nonzero"/></g></g><g mask="url(#6e517104c7)"><g transform="matrix(1, 0, 0, 1, 3, 2)"><g clip-path="url(#5b575afbd3)"><g clip-path="url(#c62e2336dd)"><path fill="#ffffff" d="M 12.082031 8.214844 L 14.269531 0.917969 L 17.1875 8.214844 L 25.945312 4.566406 L 20.835938 12.59375 L 29.59375 14.054688 L 21.566406 17.703125 L 25.945312 25.730469 L 17.1875 22.082031 L 12.8125 30.109375 L 11.351562 21.351562 L 3.324219 23.539062 L 7.703125 16.972656 L 0.417969 13.972656 L 7.703125 11.863281 L 4.054688 3.109375 Z M 15.15625 9.027344 L 14.566406 7.550781 L 14.175781 8.84375 L 13.347656 11.617188 L 10.90625 10.0625 L 8.753906 8.691406 L 9.722656 11.019531 L 10.664062 13.285156 L 8.308594 13.96875 L 7.042969 14.332031 L 8.535156 14.949219 L 11.003906 15.964844 L 9.523438 18.1875 L 8.386719 19.890625 L 10.777344 19.238281 L 13.113281 18.601562 L 13.511719 20.992188 L 13.925781 23.488281 L 15.265625 21.03125 L 16.210938 19.300781 L 18.03125 20.058594 L 21.042969 21.316406 L 19.644531 18.75 L 18.519531 16.683594 L 20.660156 15.710938 L 22.152344 15.03125 L 20.476562 14.753906 L 17.214844 14.210938 L 18.992188 11.417969 L 20.359375 9.265625 L 18.03125 10.238281 L 15.980469 11.089844 Z M 15.15625 9.027344 " fill-opacity="1" fill-rule="evenodd"/></g><path fill="#ffffff" d="M 14.082031 14.070312 L 11.351562 11.863281 L 12.8125 15.511719 L 11.351562 17.703125 L 13.539062 16.972656 L 15 19.890625 L 15.730469 16.242188 L 18.648438 15.511719 L 15.730469 14.785156 L 15 11.136719 Z M 14.082031 14.070312 " fill-opacity="1" fill-rule="nonzero"/></g></g></g></svg>